<?xml version="1.0" encoding="UTF-8"?>
<svg width="32px" height="53px" viewBox="0 0 32 53" version="1.1" xmlns="http://www.w3.org/2000/svg" xmlns:xlink="http://www.w3.org/1999/xlink">
    <!-- Generator: Sketch 51.3 (57544) - http://www.bohemiancoding.com/sketch -->
    <title>arrow-right copy</title>
    <desc>Created with Sketch.</desc>
    <defs></defs>
    <g id="Page-1" stroke="none" stroke-width="1" fill="none" fill-rule="evenodd">
        <g id="Desktop-Copy-4" transform="translate(-528.000000, -869.000000)" fill="#41435F" fill-rule="nonzero">
            <g id="How-it-works" transform="translate(240.000000, 757.000000)">
                <g id="arrow-right-copy" transform="translate(288.000000, 112.000000)">
                    <path d="M6.4211721,52.2964546 L31.3439394,28.1110174 C31.7630403,27.6683292 32,27.0563559 32,26.4166717 C32,25.7769875 31.7630403,25.1650141 31.3439394,24.7223259 L6.4211721,0.547898139 C6.02171609,0.15725707 5.49555343,-0.0382030255 4.96296754,0.00620101112 C4.43038166,0.0506050478 3.93690643,0.331076856 3.59535276,0.783499175 L0.483753951,4.85697503 C-0.239427029,5.80208196 -0.140673926,7.21164691 0.705582768,8.0232768 L19.5970044,26.0016175 C19.7073035,26.1061902 19.7707431,26.2585486 19.7707431,26.4188736 C19.7707431,26.5791985 19.7073035,26.7315569 19.5970044,26.8361296 L0.711578141,44.821076 C0.302610391,45.2124705 0.0516882791,45.7669813 0.0141163659,46.3623911 C-0.0338128066,46.9547067 0.137741025,47.5431981 0.489749324,47.9939834 L3.60334659,52.0696611 C3.94553263,52.5210027 4.43885448,52.80067 4.97109284,52.8450451 C5.5033312,52.8894201 6.02923235,52.69473 6.42916593,52.3052621 L6.4211721,52.2964546 Z" id="Shape"></path>
                </g>
            </g>
        </g>
    </g>
</svg>