<?xml version="1.0" encoding="UTF-8"?>
<svg width="100px" height="100px" viewBox="0 0 100 100" version="1.1" xmlns="http://www.w3.org/2000/svg" xmlns:xlink="http://www.w3.org/1999/xlink">
    <!-- Generator: Sketch 51.3 (57544) - http://www.bohemiancoding.com/sketch -->
    <title>Artboard</title>
    <desc>Created with Sketch.</desc>
    <defs></defs>
    <g id="Artboard" stroke="none" stroke-width="1" fill="none" fill-rule="evenodd" opacity="0.385993304">
        <g id="Copywright" fill="#555BCF" fill-rule="nonzero">
            <path d="M18.7468694,23.3214231 C12.7692097,26.7726265 5.12560594,24.7245291 1.67440252,18.7468694 C-1.7768009,12.7692097 0.271296559,5.12560594 6.24895623,1.67440252 C12.2266159,-1.7768009 19.8702197,0.271296559 23.3214231,6.24895623 C26.7726265,12.2266159 24.7245291,19.8702197 18.7468694,23.3214231 Z M17.6573054,21.3169483 C22.4394331,18.5559856 24.0779111,12.4411026 21.3169483,7.65897483 C18.5559856,2.87684709 12.4411026,1.23836913 7.65897483,3.99933186 C2.87684709,6.7602946 1.23836913,12.8751776 3.99933186,17.6573054 C6.7602946,22.4394331 12.8751776,24.0779111 17.6573054,21.3169483 Z" id="Combined-Shape"></path>
            <path d="M15.9120131,14.3571429 L18,14.3571429 C17.3095582,17.0420969 15.1604841,19 12.6162887,19 C9.51449812,19 7,16.0898509 7,12.5 C7,8.91014913 9.51449812,6 12.6162887,6 C15.1604841,6 17.3095582,7.95790312 18,10.6428571 L15.9237327,10.6428571 C15.3643331,9.2669757 14.2027437,8.32142857 12.8604752,8.32142857 C10.9724287,8.32142857 9.44186467,10.1922387 9.44186467,12.5 C9.44186467,14.8077613 10.9724287,16.6785714 12.8604752,16.6785714 C14.1548405,16.6785714 15.2811927,15.7993099 15.8615589,14.5027837 C15.8793963,14.4629353 15.8962157,14.4139749 15.9120131,14.3571429 Z" id="Combined-Shape" transform="translate(12.500000, 12.500000) rotate(-30.000000) translate(-12.500000, -12.500000) "></path>
        </g>
        <g id="Copywright" transform="translate(50.000000, 50.000000)" fill="#555BCF" fill-rule="nonzero">
            <path d="M18.7468694,23.3214231 C12.7692097,26.7726265 5.12560594,24.7245291 1.67440252,18.7468694 C-1.7768009,12.7692097 0.271296559,5.12560594 6.24895623,1.67440252 C12.2266159,-1.7768009 19.8702197,0.271296559 23.3214231,6.24895623 C26.7726265,12.2266159 24.7245291,19.8702197 18.7468694,23.3214231 Z M17.6573054,21.3169483 C22.4394331,18.5559856 24.0779111,12.4411026 21.3169483,7.65897483 C18.5559856,2.87684709 12.4411026,1.23836913 7.65897483,3.99933186 C2.87684709,6.7602946 1.23836913,12.8751776 3.99933186,17.6573054 C6.7602946,22.4394331 12.8751776,24.0779111 17.6573054,21.3169483 Z" id="Combined-Shape"></path>
            <path d="M15.9120131,14.3571429 L18,14.3571429 C17.3095582,17.0420969 15.1604841,19 12.6162887,19 C9.51449812,19 7,16.0898509 7,12.5 C7,8.91014913 9.51449812,6 12.6162887,6 C15.1604841,6 17.3095582,7.95790312 18,10.6428571 L15.9237327,10.6428571 C15.3643331,9.2669757 14.2027437,8.32142857 12.8604752,8.32142857 C10.9724287,8.32142857 9.44186467,10.1922387 9.44186467,12.5 C9.44186467,14.8077613 10.9724287,16.6785714 12.8604752,16.6785714 C14.1548405,16.6785714 15.2811927,15.7993099 15.8615589,14.5027837 C15.8793963,14.4629353 15.8962157,14.4139749 15.9120131,14.3571429 Z" id="Combined-Shape" transform="translate(12.500000, 12.500000) rotate(-30.000000) translate(-12.500000, -12.500000) "></path>
        </g>
    </g>
</svg>